<svg width="60" height="60" viewBox="0 0 49 47" fill="none" xmlns="http://www.w3.org/2000/svg">
<path fill-rule="evenodd" clip-rule="evenodd" d="M23.7858 0.00205232C28.4925 -0.0930258 32.3616 3.13525 36.4023 5.56109C40.902 8.26252 46.9049 9.92121 48.6041 14.9018C50.3055 19.8888 46.0569 24.7307 44.6777 29.8171C43.1991 35.2698 44.8467 42.4978 40.2407 45.7446C35.6266 48.9972 29.4087 44.9493 23.7858 44.544C18.7209 44.179 13.0336 46.5373 8.96188 43.4902C4.89611 40.4475 5.2214 34.4109 3.73864 29.5414C2.28955 24.7825 -1.16833 20.0899 0.398941 15.3688C1.96435 10.6534 7.39103 8.78489 11.5328 6.06347C15.4383 3.49728 19.1196 0.0963129 23.7858 0.00205232Z" fill="#f37c"/>
</svg>
