<svg width="30" height="30" viewBox="0 0 30 30" fill="none" xmlns="http://www.w3.org/2000/svg">
<path d="M15 0C6.72927 0 0 6.72927 0 15C0 23.2707 6.72927 30 15 30C23.2707 30 30 23.2707 30 15C30 6.72927 23.2707 0 15 0ZM15 2.30769C22.0222 2.30769 27.6923 7.97777 27.6923 15C27.6923 22.0222 22.0222 27.6923 15 27.6923C7.97777 27.6923 2.30769 22.0222 2.30769 15C2.30769 7.97777 7.97777 2.30769 15 2.30769ZM13.8462 8.07692V10.3846H16.1538V8.07692H13.8462ZM13.8462 12.6923V21.9231H16.1538V12.6923H13.8462Z" fill="#777777"/>
</svg>
