<svg width="25" height="19" viewBox="0 0 25 19" fill="none" xmlns="http://www.w3.org/2000/svg">
<path d="M1.266 0.000126674C1.1006 -0.00224709 0.936376 0.0287622 0.782884 0.0913521C0.629393 0.153942 0.48969 0.246864 0.371896 0.364719C0.254101 0.482574 0.160565 0.623011 0.0967208 0.777868C0.0328771 0.932725 0 1.09891 0 1.26678C0 1.43464 0.0328771 1.60083 0.0967208 1.75569C0.160565 1.91054 0.254101 2.05098 0.371896 2.16883C0.48969 2.28669 0.629393 2.37961 0.782884 2.4422C0.936376 2.50479 1.1006 2.5358 1.266 2.53343H23.734C23.8994 2.5358 24.0636 2.50479 24.2171 2.4422C24.3706 2.37961 24.5103 2.28669 24.6281 2.16883C24.7459 2.05098 24.8394 1.91054 24.9033 1.75569C24.9671 1.60083 25 1.43464 25 1.26678C25 1.09891 24.9671 0.932725 24.9033 0.777868C24.8394 0.623011 24.7459 0.482574 24.6281 0.364719C24.5103 0.246864 24.3706 0.153942 24.2171 0.0913521C24.0636 0.0287622 23.8994 -0.00224709 23.734 0.000126674H1.266ZM1.266 8.23335C1.1006 8.23098 0.936376 8.26198 0.782884 8.32457C0.629393 8.38717 0.48969 8.48009 0.371896 8.59794C0.254101 8.7158 0.160565 8.85623 0.0967208 9.01109C0.0328771 9.16595 0 9.33214 0 9.5C0 9.66786 0.0328771 9.83405 0.0967208 9.98891C0.160565 10.1438 0.254101 10.2842 0.371896 10.4021C0.48969 10.5199 0.629393 10.6128 0.782884 10.6754C0.936376 10.738 1.1006 10.769 1.266 10.7666H23.734C23.8994 10.769 24.0636 10.738 24.2171 10.6754C24.3706 10.6128 24.5103 10.5199 24.6281 10.4021C24.7459 10.2842 24.8394 10.1438 24.9033 9.98891C24.9671 9.83405 25 9.66786 25 9.5C25 9.33214 24.9671 9.16595 24.9033 9.01109C24.8394 8.85623 24.7459 8.7158 24.6281 8.59794C24.5103 8.48009 24.3706 8.38717 24.2171 8.32457C24.0636 8.26198 23.8994 8.23098 23.734 8.23335H1.266ZM1.266 16.4666C1.1006 16.4642 0.936376 16.4952 0.782884 16.5578C0.629393 16.6204 0.48969 16.7133 0.371896 16.8312C0.254101 16.949 0.160565 17.0895 0.0967208 17.2443C0.0328771 17.3992 0 17.5654 0 17.7332C0 17.9011 0.0328771 18.0673 0.0967208 18.2221C0.160565 18.377 0.254101 18.5174 0.371896 18.6353C0.48969 18.7531 0.629393 18.8461 0.782884 18.9086C0.936376 18.9712 1.1006 19.0022 1.266 18.9999H23.734C23.8994 19.0022 24.0636 18.9712 24.2171 18.9086C24.3706 18.8461 24.5103 18.7531 24.6281 18.6353C24.7459 18.5174 24.8394 18.377 24.9033 18.2221C24.9671 18.0673 25 17.9011 25 17.7332C25 17.5654 24.9671 17.3992 24.9033 17.2443C24.8394 17.0895 24.7459 16.949 24.6281 16.8312C24.5103 16.7133 24.3706 16.6204 24.2171 16.5578C24.0636 16.4952 23.8994 16.4642 23.734 16.4666H1.266Z" fill="white"/>
</svg>
