<svg width="10" height="11" viewBox="0 0 10 11" fill="none" xmlns="http://www.w3.org/2000/svg">
<path d="M4.9922 5.70625e-05C4.85995 0.00199399 4.73392 0.0530134 4.64178 0.141918C4.54963 0.230823 4.4989 0.350349 4.50071 0.474263V0.708169L1.75462 0.708169C1.68848 0.707328 1.62283 0.718807 1.56146 0.741939C1.5001 0.765071 1.44425 0.799396 1.39717 0.842919C1.35008 0.886443 1.31269 0.938298 1.28717 0.995474C1.26165 1.05265 1.24851 1.11401 1.24851 1.17598L0.5064 1.17598C0.440238 1.1751 0.374551 1.18656 0.313154 1.20967C0.251757 1.23279 0.195876 1.26711 0.148759 1.31063C0.101641 1.35416 0.0642259 1.40603 0.0386884 1.46322C0.0131509 1.52041 0 1.58179 0 1.64379C0 1.70579 0.0131509 1.76716 0.0386884 1.82436C0.0642259 1.88155 0.101641 1.93342 0.148759 1.97695C0.195876 2.02047 0.251757 2.05479 0.313154 2.07791C0.374551 2.10102 0.440238 2.11248 0.5064 2.1116L9.4936 2.1116C9.55976 2.11248 9.62545 2.10102 9.68685 2.07791C9.74824 2.05479 9.80412 2.02047 9.85124 1.97695C9.89836 1.93342 9.93577 1.88155 9.96131 1.82436C9.98685 1.76716 10 1.70579 10 1.64379C10 1.58179 9.98685 1.52041 9.96131 1.46322C9.93577 1.40603 9.89836 1.35416 9.85124 1.31063C9.80412 1.26711 9.74824 1.23279 9.68685 1.20967C9.62545 1.18656 9.55976 1.1751 9.4936 1.17598L8.75149 1.17598C8.75149 1.11401 8.73835 1.05265 8.71283 0.995474C8.68731 0.938298 8.64992 0.886443 8.60283 0.842919C8.55575 0.799396 8.4999 0.765071 8.43854 0.741939C8.37717 0.718807 8.31152 0.707328 8.24538 0.708169L5.49929 0.708169V0.474263C5.5002 0.411675 5.48771 0.349552 5.46253 0.291571C5.43736 0.23359 5.40003 0.180932 5.35274 0.136714C5.30546 0.092496 5.24919 0.0576175 5.18726 0.0341441C5.12533 0.0106706 5.059 -0.000920479 4.9922 5.70625e-05ZM0.5064 3.04722L1.40161 10.174C1.46053 10.6451 1.88611 11 2.39239 11L7.60761 11C8.11389 11 8.53898 10.6451 8.59839 10.174L9.4936 3.04722L0.5064 3.04722Z" fill="white"/>
</svg>
